<svg xmlns="http://www.w3.org/2000/svg" xmlns:xlink="http://www.w3.org/1999/xlink" width="56" height="56" version="1.1" viewBox="0 0 56 56"><title>Group</title><g id="Symbols" fill="none" fill-rule="evenodd" stroke="none" stroke-width="1"><g id="charts" transform="translate(-16.000000, -8.000000)"><g id="Group" transform="translate(16.000000, 8.000000)"><circle id="Oval" style="mix-blend-mode:multiply" cx="28" cy="28" r="28"/><g id="IconChart" fill="#06C26C" transform="translate(10.000000, 11.000000)"><circle id="Oval-Copy-2" cx="7.121" cy="14" r="7"/><circle id="Oval-Copy-5" cx="18" cy="25.825" r="7" transform="translate(18.000000, 25.824739) rotate(-180.000000) translate(-18.000000, -25.824739)"/><circle id="Oval-Copy-3" cx="23.121" cy="12" r="6"/><circle id="Oval-Copy-6" cx="4" cy="25.825" r="4" transform="translate(4.000000, 25.824739) rotate(-180.000000) translate(-4.000000, -25.824739)"/><circle id="Oval-Copy-4" cx="15.121" cy="4" r="4"/><circle id="Oval-Copy-7" cx="9.121" cy="32" r="3" transform="translate(9.121399, 32.000000) rotate(-180.000000) translate(-9.121399, -32.000000)"/><circle id="Oval-Copy-8" cx="33.121" cy="15" r="2" transform="translate(33.121399, 15.000000) rotate(-180.000000) translate(-33.121399, -15.000000)"/><circle id="Oval-Copy-9" cx="29.121" cy="21" r="3" transform="translate(29.121399, 21.000000) rotate(-180.000000) translate(-29.121399, -21.000000)"/></g></g></g></g></svg>